<mxfile host="65bd71144e">
    <diagram id="h73q4FmgP99V1r_mot5M" name="adk eval">
        <mxGraphModel dx="1960" dy="1161" grid="1" gridSize="10" guides="1" tooltips="1" connect="1" arrows="1" fold="1" page="1" pageScale="1" pageWidth="827" pageHeight="1169" math="0" shadow="0">
            <root>
                <mxCell id="0"/>
                <mxCell id="1" parent="0"/>
                <mxCell id="4" value="Initialise sessions" style="shape=step;perimeter=stepPerimeter;whiteSpace=wrap;html=1;fixedSize=1;size=10;fillColor=#10739E;strokeColor=none;fontSize=17;fontColor=#FFFFFF;fontStyle=1;align=center;rounded=0;" vertex="1" parent="1">
                    <mxGeometry x="50" y="90" width="200" height="30" as="geometry"/>
                </mxCell>
                <mxCell id="5" value="Define test cases" style="shape=step;perimeter=stepPerimeter;whiteSpace=wrap;html=1;fixedSize=1;size=10;fillColor=#F2931E;strokeColor=none;fontSize=17;fontColor=#FFFFFF;fontStyle=1;align=center;rounded=0;" vertex="1" parent="1">
                    <mxGeometry x="250" y="90" width="200" height="30" as="geometry"/>
                </mxCell>
                <mxCell id="6" value="Configure Metrics" style="shape=step;perimeter=stepPerimeter;whiteSpace=wrap;html=1;fixedSize=1;size=10;fillColor=#AE4132;strokeColor=none;fontSize=17;fontColor=#FFFFFF;fontStyle=1;align=center;rounded=0;" vertex="1" parent="1">
                    <mxGeometry x="450" y="90" width="200" height="30" as="geometry"/>
                </mxCell>
                <mxCell id="7" value="Run Evaluation" style="shape=step;perimeter=stepPerimeter;whiteSpace=wrap;html=1;fixedSize=1;size=10;fillColor=#23445D;strokeColor=none;fontSize=17;fontColor=#FFFFFF;fontStyle=1;align=center;rounded=0;" vertex="1" parent="1">
                    <mxGeometry x="650" y="90" width="200" height="30" as="geometry"/>
                </mxCell>
                <mxCell id="8" value="DEBUG" style="shape=step;perimeter=stepPerimeter;whiteSpace=wrap;html=1;fixedSize=1;size=10;fillColor=#12AAB5;strokeColor=none;fontSize=17;fontColor=#FFFFFF;fontStyle=1;align=center;rounded=0;" vertex="1" parent="1">
                    <mxGeometry x="850" y="90" width="200" height="30" as="geometry"/>
                </mxCell>
                <mxCell id="9" value="&lt;p&gt;&lt;/p&gt;&lt;ul&gt;&lt;li&gt;&lt;span style=&quot;background-color: transparent;&quot;&gt;Run proper sessions in ADK web&lt;/span&gt;&lt;/li&gt;&lt;/ul&gt;&lt;p&gt;&lt;/p&gt;" style="shape=rect;fillColor=#B1DDF0;strokeColor=none;fontSize=12;html=1;whiteSpace=wrap;align=left;verticalAlign=top;spacing=5;rounded=0;" vertex="1" parent="1">
                    <mxGeometry x="50" y="130" width="190" height="120" as="geometry"/>
                </mxCell>
                <mxCell id="12" value="&lt;ul&gt;&lt;li&gt;Add existing sessions as test cases.&lt;/li&gt;&lt;li&gt;Define test cases from scratch&lt;/li&gt;&lt;/ul&gt;" style="shape=rect;fillColor=#FCE7CD;strokeColor=none;fontSize=12;html=1;whiteSpace=wrap;align=left;verticalAlign=top;spacing=5;rounded=0;" vertex="1" parent="1">
                    <mxGeometry x="250" y="130" width="190" height="120" as="geometry"/>
                </mxCell>
                <mxCell id="15" value="&lt;ul&gt;&lt;li&gt;Configure the OOB metrics&lt;/li&gt;&lt;li&gt;Define custom metrics in GenAI evaluation service API&lt;/li&gt;&lt;/ul&gt;" style="shape=rect;fillColor=#FAD9D5;strokeColor=none;fontSize=12;html=1;whiteSpace=wrap;align=left;verticalAlign=top;spacing=5;rounded=0;" vertex="1" parent="1">
                    <mxGeometry x="450" y="130" width="190" height="120" as="geometry"/>
                </mxCell>
                <mxCell id="18" value="&lt;ul&gt;&lt;li&gt;Run evaluation from web UI&lt;/li&gt;&lt;li&gt;Run evaluation with pytest&lt;/li&gt;&lt;li&gt;Run evaluation with adk eval&lt;/li&gt;&lt;/ul&gt;" style="shape=rect;fillColor=#BAC8D3;strokeColor=none;fontSize=12;html=1;whiteSpace=wrap;align=left;verticalAlign=top;spacing=5;rounded=0;" vertex="1" parent="1">
                    <mxGeometry x="650" y="130" width="190" height="120" as="geometry"/>
                </mxCell>
                <mxCell id="21" value="&lt;ul&gt;&lt;li&gt;Montor and debug&lt;/li&gt;&lt;/ul&gt;" style="shape=rect;fillColor=#B0E3E6;strokeColor=none;fontSize=12;html=1;whiteSpace=wrap;align=left;verticalAlign=top;spacing=5;rounded=0;" vertex="1" parent="1">
                    <mxGeometry x="850" y="130" width="190" height="120" as="geometry"/>
                </mxCell>
            </root>
        </mxGraphModel>
    </diagram>
</mxfile>